<svg width="64" height="64" fill="none" xmlns="http://www.w3.org/2000/svg"><path fill="#181617" d="M0 0h64v64H0z"/><path d="M52.66 44.06H11.15a.943.943 0 0 1-.892-.638L4.05 25.323a.945.945 0 0 1 1.042-1.237.94.94 0 0 1 .806.56c.768 1.743 3.496 7.367 6.68 7.367l.12-.003c1.92-.086 4.923-2.302 8.326-12.369a.944.944 0 0 1 1.787 0c1.162 3.433 5.056 12.316 9.099 12.316h.032c1.917-.024 4.865-2.175 8.021-12.295a.944.944 0 0 1 .901-.662h.01c.416.004.78.28.896.68.965 3.323 4.386 12.025 8.583 12.388 2.452.202 5.17-2.573 7.855-8.054a.942.942 0 0 1 1.74.72l-6.396 18.688a.944.944 0 0 1-.893.638Zm-40.837-1.887h40.163l3.696-10.8c-1.787 1.89-3.6 2.734-5.492 2.575-4.648-.404-7.837-7.102-9.32-11.039-2.62 7.312-5.544 10.895-8.905 10.934l-.054.001c-4.697 0-8.323-7.201-9.966-11.173-2.803 7.396-5.81 11.074-9.163 11.224-1.718.066-3.214-.79-4.503-2.06l3.543 10.338Z" fill="#A07B50" stroke="#1F1C1D" stroke-width=".8"/></svg>