<svg width="64" height="64" viewBox="0 0 64 64" fill="none" xmlns="http://www.w3.org/2000/svg">
<rect width="64" height="64" fill="#181617"/>
<path d="M52.6603 44.0599H11.1488C10.7455 44.0599 10.3871 43.8035 10.2565 43.4223L4.051 25.3231C3.88257 24.8297 4.14493 24.2937 4.6378 24.1242C4.78896 24.0729 4.94659 24.0599 5.09289 24.0858C5.43407 24.1058 5.75203 24.312 5.89941 24.6467C6.66652 26.3888 9.39541 32.0128 12.5788 32.0128C12.6183 32.0128 12.6582 32.0118 12.6987 32.0096C14.6189 31.9243 17.622 29.7083 21.0246 19.6413C21.1547 19.258 21.5137 19 21.9181 19C22.3229 19 22.6819 19.258 22.812 19.6413C23.9738 23.0742 27.8676 31.9572 31.911 31.9572C31.9218 31.9572 31.9321 31.9567 31.9434 31.9567C33.8604 31.9335 36.8079 29.7822 39.9644 19.6624C40.088 19.2678 40.4524 19 40.8654 19H40.8745C41.2913 19.0043 41.6557 19.2807 41.7712 19.6807C42.7359 23.0029 46.1574 31.7046 50.3541 32.0679C52.8061 32.2698 55.5247 29.495 58.2088 24.014C58.4269 23.5665 58.957 23.3651 59.4175 23.5568C59.8769 23.7473 60.1101 24.2624 59.9492 24.7342L53.5532 43.4223C53.422 43.804 53.0636 44.0599 52.6603 44.0599ZM11.8225 42.1731H51.9855L55.6818 31.3731C53.8955 33.2636 52.0816 34.1069 50.19 33.9482C45.542 33.5438 42.3526 26.846 40.8697 22.909C38.2504 30.2206 35.3261 33.8035 31.965 33.8429C31.9467 33.8429 31.9294 33.844 31.911 33.844C27.2139 33.844 23.5878 26.643 21.9451 22.6709C19.1422 30.0672 16.1342 33.7446 12.7824 33.8947C11.0641 33.9611 9.56762 33.1049 8.27902 31.8347L11.8225 42.1731Z" fill="#A07B50" stroke="#1F1C1D" stroke-width="0.8"/>
</svg>
