<svg width="80" height="88" viewBox="0 0 80 88" xmlns="http://www.w3.org/2000/svg">
<path d="M10.8778 19.2876C4.87968 19.2876 0 24.1933 0 30.223C0 35.8156 4.1987 40.4382 9.59317 41.0795V49.5107C9.59317 50.2239 10.1685 50.8023 10.878 50.8023C11.5875 50.8023 12.1629 50.2239 12.1629 49.5107V41.0795C17.5573 40.4382 21.756 35.8155 21.756 30.223C21.7559 24.1933 16.876 19.2876 10.8778 19.2876ZM10.8778 38.5753C6.29668 38.5753 2.56952 34.8284 2.56952 30.223C2.56952 25.6176 6.29668 21.8707 10.8778 21.8707C15.459 21.8707 19.1862 25.6176 19.1862 30.223C19.1862 34.8284 15.4592 38.5753 10.8778 38.5753Z"/>
<path d="M10.8779 24.7985C7.90246 24.7985 5.48168 27.2321 5.48168 30.2232C5.48168 33.2144 7.90246 35.6479 10.8779 35.6479C13.8533 35.6479 16.274 33.2144 16.274 30.2232C16.274 27.2321 13.8533 24.7985 10.8779 24.7985ZM10.8779 33.0647C9.31929 33.0647 8.05137 31.7899 8.05137 30.2232C8.05137 28.6566 9.31946 27.3818 10.8779 27.3818C12.4364 27.3818 13.7044 28.6566 13.7044 30.2232C13.7044 31.7899 12.4364 33.0647 10.8779 33.0647Z"/>
<path d="M78.7148 30.998H77.9439V8.86892C77.9439 5.11809 74.9083 2.06662 71.1774 2.06662H68.3509V1.29164C68.3509 0.578359 67.7758 0 67.0661 0H63.64C61.7981 0 60.2995 1.50648 60.2995 3.35809C60.2995 5.2097 61.7981 6.71619 63.64 6.71619H67.0661C67.7758 6.71619 68.3509 6.13783 68.3509 5.42455V4.64956H71.1774C73.4917 4.64956 75.3744 6.54242 75.3744 8.86875V30.9978H74.6035C73.8938 30.9978 73.3186 31.5762 73.3186 32.2895V34.3559C73.3186 40.1008 68.6692 44.7746 62.9547 44.7746H46.5094C40.7948 44.7746 36.1455 40.1008 36.1455 34.3559V32.2895C36.1455 31.5762 35.5701 30.9978 34.8606 30.9978H34.0897V8.86892C34.0897 6.54259 35.9726 4.64973 38.2867 4.64973H41.1132V5.42472C41.1132 6.138 41.6883 6.71636 42.398 6.71636H45.8241C47.666 6.71636 49.1646 5.20987 49.1646 3.35827C49.1647 1.50648 47.6662 0 45.8241 0H42.398C41.6883 0 41.1132 0.578359 41.1132 1.29164V2.06662H38.2867C34.5556 2.06662 31.5202 5.11827 31.5202 8.86892V30.998H30.7493C30.0397 30.998 29.4644 31.5764 29.4644 32.2896V34.3561C29.4644 43.8042 37.1108 51.4912 46.5094 51.4912H51.3916V57.7768C51.3916 58.4901 51.9668 59.0685 52.6765 59.0685H53.4474V66.043C53.4474 76.7257 44.8019 85.4167 34.1755 85.4167H31.4347C20.8082 85.4167 12.1629 76.7257 12.1629 66.043V55.7676C12.1629 55.0543 11.5876 54.4759 10.878 54.4759C10.1685 54.4759 9.59318 55.0543 9.59318 55.7676V66.043C9.59318 78.1502 19.3912 88 31.4347 88H34.1755C46.2191 88 56.0171 78.1502 56.0171 66.043V59.0685H56.788C57.4977 59.0685 58.0728 58.4901 58.0728 57.7768V51.4912H62.9551C72.3535 51.4912 80 43.8044 80 34.3561V32.2896C79.9997 31.5764 79.4245 30.998 78.7148 30.998ZM65.7812 4.13308H63.64C63.2149 4.13308 62.8691 3.78537 62.8691 3.35809C62.8691 2.93081 63.2149 2.58311 63.64 2.58311H65.7812V4.13308ZM43.6829 2.58311H45.8241C46.2492 2.58311 46.595 2.93081 46.595 3.35809C46.595 3.78537 46.2492 4.13308 45.8241 4.13308H43.6829V2.58311ZM77.4301 34.3561C77.4301 42.3799 70.9367 48.9079 62.9549 48.9079H56.788C56.0783 48.9079 55.5031 49.4862 55.5031 50.1995V56.4852H53.9613V50.1995C53.9613 49.4862 53.3862 48.9079 52.6765 48.9079H46.5095C38.5278 48.9079 32.0343 42.3799 32.0343 34.3561V33.5811H33.5761V34.3561C33.5761 41.5255 39.378 47.3581 46.5097 47.3581H62.9551C70.0868 47.3581 75.8887 41.5255 75.8887 34.3561V33.5811H77.4305L77.4301 34.3561Z"/>
<path d="M54.732 20.6653C48.923 20.6653 44.1968 25.4165 44.1968 31.2563C44.1968 36.594 48.1351 39.7808 54.732 39.7808C61.3289 39.7808 65.2672 36.594 65.2672 31.2563C65.2674 25.4165 60.5413 20.6653 54.732 20.6653ZM54.732 37.1977C51.7571 37.1977 46.7663 36.4258 46.7663 31.2563C46.7663 26.8408 50.3396 23.2485 54.732 23.2485C59.1244 23.2485 62.6977 26.8408 62.6977 31.2563C62.6977 36.4258 57.7069 37.1977 54.732 37.1977Z"/>
<path d="M49.593 10.3327C46.967 10.3327 45.2247 13.5976 45.2247 15.7574C45.2247 18.1789 47.1842 20.1488 49.593 20.1488C52.0018 20.1488 53.9613 18.1789 53.9613 15.7574C53.9611 13.5978 52.2189 10.3327 49.593 10.3327ZM49.593 17.5657C48.6012 17.5657 47.7942 16.7546 47.7942 15.7574C47.7942 14.5359 48.8197 12.9159 49.593 12.9159C50.3663 12.9159 51.3918 14.5359 51.3918 15.7574C51.3916 16.7544 50.5848 17.5657 49.593 17.5657Z"/>
<path d="M59.8712 10.3327C57.2453 10.3327 55.5029 13.5976 55.5029 15.7574C55.5029 18.1789 57.4624 20.1488 59.8712 20.1488C62.28 20.1488 64.2395 18.1789 64.2395 15.7574C64.2395 13.5978 62.4972 10.3327 59.8712 10.3327ZM59.8712 17.5657C58.8794 17.5657 58.0724 16.7546 58.0724 15.7574C58.0724 14.5359 59.0979 12.9159 59.8712 12.9159C60.6445 12.9159 61.67 14.5359 61.67 15.7574C61.67 16.7544 60.863 17.5657 59.8712 17.5657Z"/>
<path d="M68.0939 16.5323C65.4679 16.5323 63.7256 19.7972 63.7256 21.957C63.7256 24.3786 65.6851 26.3484 68.0939 26.3484C70.5027 26.3484 72.4622 24.3786 72.4622 21.957C72.4622 19.7972 70.7198 16.5323 68.0939 16.5323ZM68.0939 23.7651C67.1021 23.7651 66.2951 22.9541 66.2951 21.9568C66.2951 20.7353 67.3206 19.1154 68.0939 19.1154C68.8672 19.1154 69.8927 20.7353 69.8927 21.9568C69.8925 22.9541 69.0857 23.7651 68.0939 23.7651Z"/>
<path d="M41.3703 16.5323C38.7444 16.5323 37.002 19.7972 37.002 21.957C37.002 24.3786 38.9615 26.3484 41.3703 26.3484C43.7791 26.3484 45.7386 24.3786 45.7386 21.957C45.7386 19.7972 43.9963 16.5323 41.3703 16.5323ZM41.3703 23.7651C40.3785 23.7651 39.5715 22.9541 39.5715 21.9568C39.5715 20.7353 40.597 19.1154 41.3703 19.1154C42.1436 19.1154 43.1691 20.7353 43.1691 21.9568C43.1689 22.9541 42.3621 23.7651 41.3703 23.7651Z"/>
</svg>
