<svg width="52" height="24" fill="none" xmlns="http://www.w3.org/2000/svg"><path d="M44.447 23H7.383a.841.841 0 0 1-.797-.56L1.046 6.551a.826.826 0 0 1 .523-1.053.837.837 0 0 1 .407-.033.84.84 0 0 1 .72.492c.685 1.53 3.121 6.467 5.964 6.467l.107-.003c1.714-.075 4.396-2.02 7.434-10.858A.842.842 0 0 1 16.998 1c.362 0 .682.227.799.563 1.037 3.014 4.513 10.812 8.124 10.812h.029c1.711-.02 4.343-1.91 7.161-10.793A.841.841 0 0 1 33.916 1h.008a.84.84 0 0 1 .8.598c.862 2.916 3.917 10.555 7.664 10.874 2.189.178 4.616-2.258 7.013-7.07A.848.848 0 0 1 50.48 5c.41.168.618.62.475 1.034L45.244 22.44a.842.842 0 0 1-.797.56ZM7.984 21.344h35.86l3.3-9.482c-1.594 1.66-3.214 2.4-4.903 2.26-4.15-.354-6.998-6.234-8.322-9.69-2.338 6.418-4.95 9.564-7.95 9.598l-.048.002c-4.194 0-7.432-6.322-8.899-9.81-2.502 6.494-5.188 9.722-8.18 9.854-1.535.058-2.87-.693-4.021-1.809l3.163 9.077Z" fill="#A07B50" stroke="#1F1C1D" stroke-width=".8"/></svg>